<svg xmlns="http://www.w3.org/2000/svg" width="760" height="270" viewBox="0 0 760 270" role="img" aria-label="Huihui prompt reading on both cards: UD-Q4_K_XL, UD-Q6_K_XL and Q8_0" font-family="-apple-system,BlinkMacSystemFont,'Segoe UI','Noto Sans',Helvetica,Arial,sans-serif">
<title>Huihui prompt reading on both cards: UD-Q4_K_XL, UD-Q6_K_XL and Q8_0</title>
<text x="0" y="16" font-size="15" font-weight="600" fill="#1f2328">Huihui, RTX 3090 + RTX 5060 Ti · prompt reading (tokens/s)</text>
<rect x="0" y="28" width="12" height="12" rx="3" fill="#eb6834"/>
<text x="18" y="38" font-size="13" fill="#59636e">UD-Q4_K_XL</text>
<rect x="114.0" y="28" width="12" height="12" rx="3" fill="#14958f"/>
<text x="132.0" y="38" font-size="13" fill="#59636e">UD-Q6_K_XL</text>
<rect x="228.0" y="28" width="12" height="12" rx="3" fill="#4a3aa7"/>
<text x="246.0" y="38" font-size="13" fill="#59636e">Q8_0</text>
<line x1="120.0" y1="52" x2="120.0" y2="248" stroke="#d1d9e0" stroke-width="1"/>
<text x="120.0" y="264" font-size="11" fill="#59636e" text-anchor="middle">0</text>
<line x1="265.0" y1="52" x2="265.0" y2="248" stroke="#d1d9e0" stroke-width="1"/>
<text x="265.0" y="264" font-size="11" fill="#59636e" text-anchor="middle">500</text>
<line x1="410.0" y1="52" x2="410.0" y2="248" stroke="#d1d9e0" stroke-width="1"/>
<text x="410.0" y="264" font-size="11" fill="#59636e" text-anchor="middle">1,000</text>
<line x1="555.0" y1="52" x2="555.0" y2="248" stroke="#d1d9e0" stroke-width="1"/>
<text x="555.0" y="264" font-size="11" fill="#59636e" text-anchor="middle">1,500</text>
<line x1="700.0" y1="52" x2="700.0" y2="248" stroke="#d1d9e0" stroke-width="1"/>
<text x="700.0" y="264" font-size="11" fill="#59636e" text-anchor="middle">2,000</text>
<text x="110" y="85.5" font-size="13" fill="#1f2328" text-anchor="end">18,076 tokens</text>
<path d="M120.0,58.0 h512.8 a4,4 0 0 1 4,4 v6.0 a4,4 0 0 1 -4,4 h-512.8 z" fill="#eb6834"/>
<text x="642.8" y="69" font-size="12" fill="#59636e">1,782</text>
<path d="M120.0,74.0 h418.5 a4,4 0 0 1 4,4 v6.0 a4,4 0 0 1 -4,4 h-418.5 z" fill="#14958f"/>
<text x="548.5" y="85" font-size="12" fill="#59636e">1,457</text>
<path d="M120.0,90.0 h381.7 a4,4 0 0 1 4,4 v6.0 a4,4 0 0 1 -4,4 h-381.7 z" fill="#4a3aa7"/>
<text x="511.7" y="101" font-size="12" fill="#59636e">1,330</text>
<text x="110" y="147.5" font-size="13" fill="#1f2328" text-anchor="end">5,296 tokens</text>
<path d="M120.0,120.0 h320.8 a4,4 0 0 1 4,4 v6.0 a4,4 0 0 1 -4,4 h-320.8 z" fill="#eb6834"/>
<text x="450.8" y="131" font-size="12" fill="#59636e">1,120</text>
<path d="M120.0,136.0 h207.1 a4,4 0 0 1 4,4 v6.0 a4,4 0 0 1 -4,4 h-207.1 z" fill="#14958f"/>
<text x="337.1" y="147" font-size="12" fill="#59636e">728</text>
<path d="M120.0,152.0 h172.9 a4,4 0 0 1 4,4 v6.0 a4,4 0 0 1 -4,4 h-172.9 z" fill="#4a3aa7"/>
<text x="302.9" y="163" font-size="12" fill="#59636e">610</text>
<text x="110" y="209.5" font-size="13" fill="#1f2328" text-anchor="end">3,340 tokens</text>
<path d="M120.0,182.0 h230.3 a4,4 0 0 1 4,4 v6.0 a4,4 0 0 1 -4,4 h-230.3 z" fill="#eb6834"/>
<text x="360.3" y="193" font-size="12" fill="#59636e">808</text>
<path d="M120.0,198.0 h146.2 a4,4 0 0 1 4,4 v6.0 a4,4 0 0 1 -4,4 h-146.2 z" fill="#14958f"/>
<text x="276.2" y="209" font-size="12" fill="#59636e">518</text>
<path d="M120.0,214.0 h119.5 a4,4 0 0 1 4,4 v6.0 a4,4 0 0 1 -4,4 h-119.5 z" fill="#4a3aa7"/>
<text x="249.5" y="225" font-size="12" fill="#59636e">426</text></svg>
